<svg width="28" height="28" viewBox="0 0 28 28" fill="none" xmlns="http://www.w3.org/2000/svg">
<g clip-path="url(#clip0_2941_28817)">
<path d="M14 28C21.732 28 28 21.732 28 14C28 6.26801 21.732 0 14 0C6.26801 0 0 6.26801 0 14C0 21.732 6.26801 28 14 28Z" fill="black"/>
<path d="M8.09824 21.1118C7.06588 21.1118 6.22852 20.2745 6.22852 19.2421C6.22852 18.9324 6.47514 18.6858 6.78485 18.6858C7.09455 18.6858 7.34117 18.9324 7.34117 19.2421C7.34117 19.6551 7.67956 19.9935 8.09251 19.9935C8.40221 19.9935 8.64884 20.2401 8.64884 20.5498C8.64884 20.8595 8.40221 21.1061 8.09251 21.1061L8.09824 21.1118Z" fill="white"/>
<path d="M19.902 21.1118C19.5923 21.1118 19.3457 20.8652 19.3457 20.5555C19.3457 20.2458 19.5923 19.9992 19.902 19.9992C20.315 19.9992 20.6534 19.6608 20.6534 19.2479C20.6534 18.9381 20.9 18.6915 21.2097 18.6915C21.5194 18.6915 21.766 18.9381 21.766 19.2479C21.766 20.2802 20.9287 21.1176 19.8963 21.1176L19.902 21.1118Z" fill="white"/>
<path d="M19.9017 21.1118H8.09832C7.78861 21.1118 7.54199 20.8652 7.54199 20.5555C7.54199 20.2458 7.78861 19.9991 8.09832 19.9991H19.8959C20.2057 19.9991 20.4523 20.2458 20.4523 20.5555C20.4523 20.8652 20.2057 21.1118 19.8959 21.1118H19.9017Z" fill="white"/>
<path d="M6.7907 19.8042C6.481 19.8042 6.23438 19.5575 6.23438 19.2478V8.75787C6.23438 8.44816 6.481 8.20154 6.7907 8.20154C7.10041 8.20154 7.34703 8.44816 7.34703 8.75787V19.2478C7.34703 19.5575 7.10041 19.8042 6.7907 19.8042Z" fill="white"/>
<path d="M21.2097 19.8042C20.8999 19.8042 20.6533 19.5575 20.6533 19.2478V8.75787C20.6533 8.44816 20.8999 8.20154 21.2097 8.20154C21.5194 8.20154 21.766 8.44816 21.766 8.75787V19.2478C21.766 19.5575 21.5194 19.8042 21.2097 19.8042Z" fill="white"/>
<path d="M21.2094 9.3142H6.7907C6.481 9.3142 6.23438 9.06758 6.23438 8.75787C6.23438 8.44816 6.481 8.20154 6.7907 8.20154H21.2151C21.5248 8.20154 21.7715 8.44816 21.7715 8.75787C21.7715 9.06758 21.5248 9.3142 21.2151 9.3142H21.2094Z" fill="white"/>
<path d="M10.0651 10.6219C9.75541 10.6219 9.50879 10.3753 9.50879 10.0656V7.44451C9.50879 7.1348 9.75541 6.88818 10.0651 6.88818C10.3748 6.88818 10.6214 7.1348 10.6214 7.44451V10.0656C10.6214 10.3753 10.3748 10.6219 10.0651 10.6219Z" fill="white"/>
<path d="M12.6862 10.6219C12.3765 10.6219 12.1299 10.3753 12.1299 10.0656V7.44451C12.1299 7.1348 12.3765 6.88818 12.6862 6.88818C12.9959 6.88818 13.2425 7.1348 13.2425 7.44451V10.0656C13.2425 10.3753 12.9959 10.6219 12.6862 10.6219Z" fill="white"/>
<path d="M15.3132 10.6219C15.0035 10.6219 14.7568 10.3753 14.7568 10.0656V7.44451C14.7568 7.1348 15.0035 6.88818 15.3132 6.88818C15.6229 6.88818 15.8695 7.1348 15.8695 7.44451V10.0656C15.8695 10.3753 15.6229 10.6219 15.3132 10.6219Z" fill="white"/>
<path d="M17.9343 10.6219C17.6246 10.6219 17.3779 10.3753 17.3779 10.0656V7.44451C17.3779 7.1348 17.6246 6.88818 17.9343 6.88818C18.244 6.88818 18.4906 7.1348 18.4906 7.44451V10.0656C18.4906 10.3753 18.244 10.6219 17.9343 10.6219Z" fill="white"/>
<path d="M13.3463 17.837C13.2029 17.837 13.0595 17.7854 12.9505 17.6764L10.3295 15.0553C10.1115 14.8374 10.1115 14.4875 10.3295 14.2696C10.5474 14.0516 10.8973 14.0516 11.1152 14.2696L13.3463 16.4949L16.885 12.9562C17.1029 12.7382 17.4528 12.7382 17.6707 12.9562C17.8887 13.1741 17.8887 13.524 17.6707 13.7419L13.7363 17.6764C13.6273 17.7854 13.4839 17.837 13.3405 17.837H13.3463Z" fill="white"/>
</g>
<defs>
<clipPath id="clip0_2941_28817">
<rect width="28" height="28" fill="white"/>
</clipPath>
</defs>
</svg>
