<svg width="101" height="91" viewBox="0 0 101 91" fill="none" xmlns="http://www.w3.org/2000/svg">
<path d="M41.1238 69.1422C41.4931 68.7725 41.7147 68.6853 42.2835 68.6853C42.8894 68.6853 43.0372 68.7528 43.3503 69.1735C44.2681 70.4066 44.9672 70.9947 45.8138 71.246C47.4988 71.7466 48.8597 71.4085 50.1169 70.1769C51.08 69.2325 51.4194 68.596 51.5497 67.486C51.636 66.7513 51.5994 66.5866 51.2328 66.0685C51.0047 65.746 50.3903 65.0603 49.8672 64.5447C49.3444 64.0291 48.7825 63.315 48.6191 62.9578C48.3597 62.3919 48.3469 62.2335 48.5175 61.7222C48.8078 60.855 49.3616 60.7178 53.0181 60.6066C56.5144 60.5003 57.0781 60.5669 57.6203 61.1519C58.4375 62.0332 58.0513 63.2125 56.3944 64.8928C54.6947 66.6169 54.4453 67.4369 55.1263 69.0672C55.6635 70.3525 57.6075 71.5231 59.2391 71.5435C60.5607 71.5603 61.5744 71.0994 62.6482 69.9928C63.6716 68.9378 63.9585 68.8335 64.7325 69.2338C65.6563 69.7116 65.776 70.7957 65.0457 72.0688C64.4938 73.0313 63.5585 73.8325 62.2966 74.4232C61.4432 74.8228 61.2219 74.8569 59.495 74.8541C57.4803 74.8506 56.4685 74.6185 55.3185 73.8956C54.9978 73.6941 54.6782 73.5291 54.6078 73.5291C54.5378 73.5291 54.2057 73.2478 53.87 72.9041C53.5344 72.5603 53.1463 72.2791 53.0082 72.2791C52.8697 72.2791 52.55 72.4947 52.2975 72.7585C51.3447 73.7538 49.605 74.5363 47.9747 74.7025C44.9785 75.0085 42.2144 73.7635 41.1466 71.6269C40.5281 70.3888 40.5222 69.7435 41.1238 69.1422Z" fill="black"/>
<path d="M14.3763 7.82656C15.215 7.51218 16.1122 7.1453 16.37 7.01124C17.0441 6.66062 17.9916 5.72718 18.3184 5.09155C18.6056 4.53343 19.6603 1.10124 19.755 0.416239C19.8453 -0.235324 20.1284 -0.101573 20.3025 0.67499C20.7066 2.47624 21.6594 4.7528 22.4506 5.80811C23.3353 6.98749 23.6925 7.22999 25.2763 7.72749C26.535 8.1228 27.0731 8.37062 27.0731 8.55531C27.0731 8.62687 26.9631 8.6853 26.8284 8.6853C26.6047 8.6853 26.0388 8.89343 24.3428 9.59874C22.6206 10.3153 21.7603 11.5122 20.8985 14.3884C20.6669 15.1619 20.4213 15.8547 20.3525 15.9284C20.1847 16.1081 19.9113 15.5691 19.6375 14.5166C19.2503 13.0309 18.3519 11.5434 17.3047 10.655C16.7875 10.2162 16.0844 9.74123 15.7422 9.59936C14.3322 9.01561 13.4263 8.6853 13.2335 8.6853C13.1213 8.6853 12.9891 8.62061 12.9403 8.54186C12.8916 8.4628 13.5378 8.14093 14.3763 7.82656Z" fill="black"/>
<path d="M1.12093 24.3941C1.73749 24.1584 2.58594 23.6937 3.00625 23.3615C3.68219 22.8272 3.81093 22.6253 4.11562 21.6197C4.55249 20.1781 4.88625 19.2322 4.95781 19.2322C4.98843 19.2322 5.17125 19.6541 5.36375 20.1697C5.81781 21.3853 6.7375 22.7359 7.58312 23.4291C8.24812 23.9741 9.54905 24.6228 9.97686 24.6228C10.0984 24.6228 10.1981 24.6966 10.1981 24.7872C10.1981 24.9484 9.90812 25.0872 8.44999 25.6225C6.92187 26.1831 6.00249 27.4622 5.6953 29.4537C5.57655 30.2231 5.27968 30.4562 5.12093 29.9047C4.74499 28.5991 4.14906 27.2819 3.73219 26.8353C3.23125 26.2987 2.31467 25.7697 0.841236 25.1665C0.560611 25.0519 0.280625 24.9372 0 24.8225C0.37375 24.6797 0.747492 24.5369 1.12093 24.3941Z" fill="black"/>
<path d="M35.1894 52.9969C36.3181 50.2022 40.1438 49.7578 41.9169 52.2153C42.4522 52.9572 42.4638 53.0053 42.4638 54.4878C42.4638 55.9219 42.4384 56.0384 41.9903 56.6763C41.7297 57.0469 41.1722 57.5622 40.7516 57.8222C40.0462 58.2578 39.8766 58.2947 38.5691 58.2919C37.2337 58.2897 37.11 58.2606 36.4425 57.7959C35.5191 57.1525 35.0469 56.2109 34.9519 54.8225C34.8962 54.0041 34.95 53.5894 35.1894 52.9969Z" fill="black"/>
<path d="M64.4184 53.1531C64.8009 52.1738 65.3872 51.5534 66.37 51.0891C67.3369 50.6319 68.5997 50.6003 69.5038 51.0113C70.3288 51.3859 71.3797 52.6235 71.5931 53.4713C72.2844 56.2169 70.695 58.4188 68.0222 58.4188C66.1572 58.4188 64.8347 57.4934 64.3453 55.8466C64.0319 54.7903 64.0506 54.095 64.4184 53.1531Z" fill="black"/>
<path d="M38.0887 38.2165C38.1668 38.1518 38.2449 38.0869 38.3231 38.0219C38.4012 38.0869 38.4793 38.1518 38.5574 38.2165C38.8828 38.4865 38.8503 38.8859 38.484 39.115C38.2234 39.2778 38.1515 39.2609 38.0153 39.0065C37.7978 38.6003 37.8121 38.4459 38.0887 38.2165Z" fill="black"/>
<path d="M7.28944 58.4794C8.04257 57.7263 9.32381 57.5578 11.6044 57.9116C12.1632 57.9984 12.9816 58.1116 13.4235 58.1631C14.3282 58.2688 14.3091 58.2916 14.4932 56.8884C14.7582 54.8641 15.5651 52.4234 16.8894 49.64C17.5119 48.3313 17.5307 48.5469 16.5576 45.7947C15.3113 42.2706 14.8151 38.2613 14.9332 32.6697C15.0179 28.6341 15.4716 25.1034 16.1304 23.3466C16.4888 22.3906 17.4594 21.3138 18.3919 20.8375C20.2385 19.8941 24.5491 20.5759 29.1826 22.5441C30.5394 23.1203 33.3113 24.4681 33.9482 24.8609C34.2488 25.0466 34.9169 25.4316 35.4326 25.7166C35.9482 26.0013 36.5866 26.3816 36.8516 26.5616C37.1166 26.7413 37.7491 27.1644 38.2579 27.5016C38.7663 27.8391 39.6394 28.4759 40.1982 28.9175C41.5588 29.9931 41.5429 29.9863 42.0338 29.7241C42.9288 29.2463 44.1891 28.9238 47.3857 28.355C49.0641 28.0566 49.8991 28.0075 53.3232 28.0063C57.4657 28.005 57.8969 28.0453 62.3435 28.8509C63.7385 29.1038 65.086 29.3103 65.3382 29.3103C65.7719 29.3103 66.7426 28.7225 68.8147 27.2056C70.6544 25.8591 75.5747 23.2931 78.7051 22.0475C84.8272 19.6116 88.8963 19.8369 90.3769 22.6944C92.3663 26.5331 92.8013 35.16 91.3641 42.2791C91.0413 43.8784 90.2704 46.2091 89.6579 47.4369C89.4888 47.7763 89.3194 48.1153 89.1507 48.4544C89.3313 48.7922 89.5119 49.1303 89.6929 49.4681C90.7279 51.4041 91.7144 54.0413 92.0772 55.84C92.176 56.3306 92.3282 57.0659 92.4148 57.4738C92.4676 57.7209 92.5204 57.9684 92.5729 58.2156C92.8672 58.1866 93.1613 58.1569 93.4557 58.1278C93.9416 58.0797 94.8094 57.9744 95.3844 57.8938C96.7579 57.7022 98.1026 57.71 98.8391 57.9147C99.8976 58.2084 100.402 59.5597 99.6904 60.1941C99.2385 60.5966 98.4944 60.7988 96.3701 61.0966C94.0822 61.4169 92.8263 61.63 92.7447 61.7116C92.7082 61.7485 92.6451 62.1547 92.6041 62.6147C92.3966 64.97 92.0057 67.4178 91.6766 68.4209C91.4741 69.0391 91.3576 69.5925 91.4176 69.6503C91.4772 69.7084 92.1241 69.9078 92.8544 70.0928C94.4932 70.5078 97.2951 71.4063 98.2019 71.8075C99.3326 72.3075 99.6751 72.8356 99.5976 73.9613C99.566 74.4191 98.7279 74.9338 98.0122 74.9347C97.7122 74.935 96.5169 74.6634 95.356 74.3309C94.1951 73.9981 92.6616 73.5994 91.9485 73.4441C91.2351 73.2888 90.616 73.1038 90.5719 73.0331C90.4401 72.82 89.8857 72.8878 89.8857 73.1172C89.8857 73.2341 89.3291 74.1659 88.6491 75.1875C87.0957 77.5203 84.5126 80.1228 81.5297 82.36C74.4672 87.6569 64.1994 90.8703 54.3388 90.8697C46.7169 90.8697 41.3576 89.9525 35.0419 87.5685C34.1394 87.2278 33.296 86.8825 33.1669 86.8006C33.0379 86.7188 32.8272 86.6091 32.6982 86.5566C30.4326 85.6353 26.2163 83.1219 24.3416 81.5759C21.3957 79.1466 18.5154 75.9244 17.3857 73.7953C17.1213 73.2972 16.8076 72.8525 16.6885 72.8066C16.4254 72.7056 14.2126 73.3003 11.6901 74.15C9.72568 74.8119 9.15507 74.8894 8.34163 74.6059C7.81288 74.4216 7.3838 73.7822 7.38849 73.1853C7.39474 72.3088 9.511 71.2213 13.4044 70.0934C14.3479 69.8203 15.1782 69.541 15.2491 69.4728C15.3201 69.405 15.2632 68.9713 15.1232 68.5094C14.7385 67.2425 14.436 65.3906 14.3194 63.5859C14.2591 62.6569 14.136 61.9016 14.0304 61.8134C13.9288 61.7294 13.3941 61.5928 12.8422 61.5103C11.4344 61.3 8.58693 60.7575 7.84974 60.5591C7.41756 60.4428 7.16069 60.2553 6.99632 59.9372C6.65601 59.28 6.69819 59.0706 7.28944 58.4794ZM88.7132 58.3459C88.6701 58.3028 88.5591 57.8588 88.4666 57.3594C88.0226 54.9572 86.7347 51.9659 84.9672 49.2322C83.2104 46.5147 79.7413 42.6259 77.1513 40.4709C75.6585 39.2291 72.9907 37.2791 72.7838 37.2791C72.7444 37.2791 72.4454 37.0966 72.1191 36.8734C70.5122 35.7734 65.6938 33.7275 62.9657 32.9859C58.4629 31.7628 52.356 31.4919 47.3857 32.295C45.466 32.605 41.9879 33.595 40.6116 34.2228C40.3413 34.3463 39.6723 34.6319 39.1244 34.8572C38.1066 35.2769 35.9316 36.4003 35.5107 36.7241C35.3816 36.8231 34.8194 37.1766 34.2607 37.5094C33.7019 37.8422 33.056 38.2606 32.8251 38.4391C32.5941 38.6175 32.0669 39.0097 31.6535 39.3103C28.841 41.3566 24.516 45.6363 22.6066 48.2619C20.6582 50.9413 19.4154 53.3331 18.8144 55.5603C17.9879 58.625 17.9716 58.7134 18.1926 58.9281C18.3072 59.04 19.2801 59.39 20.3544 59.7066C22.8019 60.4275 25.4323 61.3253 26.9338 61.9528C27.7694 62.3019 28.186 62.5784 28.4404 62.9528C29.0413 63.8375 28.8413 64.6438 27.9251 65.0269C26.9157 65.4485 26.4229 65.3531 22.706 64.0175C21.7219 63.6641 20.386 63.2309 19.7373 63.0553C19.0885 62.8794 18.4235 62.695 18.2597 62.6453C17.9785 62.56 17.9672 62.6247 18.0604 63.7844C18.1776 65.2356 18.7591 68.3931 18.9454 68.5847C19.0173 68.6588 19.5182 68.6097 20.0663 68.4741C22.9191 67.7703 26.5038 67.5259 27.3738 67.9759C28.0938 68.3484 28.2616 69.6547 27.6591 70.1972C27.1801 70.6284 26.9682 70.69 24.8107 71.0297C22.6235 71.3741 20.7904 71.8306 20.7173 72.0497C20.6891 72.1344 20.911 72.4841 21.2104 72.8272C21.5098 73.1703 21.756 73.5147 21.7576 73.5925C21.7591 73.6706 22.5869 74.5738 23.5966 75.5997C25.5994 77.635 27.2372 79.0328 28.7669 80.0134C28.9013 80.0994 29.3488 80.3991 29.7616 80.6791C30.6913 81.3103 33.371 82.7222 34.7294 83.2972C36.0535 83.8575 39.5869 85.0694 40.4119 85.2463C40.7673 85.3225 41.6554 85.5291 42.3857 85.7059C45.2282 86.3931 47.7701 86.6725 51.9951 86.7619C59.2997 86.9166 63.6354 86.2603 69.9638 84.0425C72.5616 83.1322 74.156 82.3572 77.2294 80.5116C80.0913 78.7931 83.1941 76.0775 84.7316 73.9459C85.0313 73.5306 85.4804 72.9469 85.7291 72.6488C85.9838 72.3441 86.1207 72.0525 86.0416 71.9831C85.9644 71.9153 85.0576 71.7331 84.0263 71.5778C80.6832 71.0753 79.536 70.7813 79.1435 70.3259C78.6894 69.7988 78.6651 68.8122 79.0957 68.3816C79.2626 68.2147 79.6598 68.0291 79.9773 67.9694C80.8066 67.8141 83.5904 68.0231 85.4235 68.3791C86.2876 68.5472 87.1472 68.6844 87.3335 68.685C87.8729 68.6856 88.2219 67.4403 88.5594 64.3103C88.6104 63.8375 88.6872 63.2666 88.7301 63.0409C88.8185 62.5766 88.4851 62.3513 88.0435 62.5769C87.8966 62.6522 86.7604 63.0078 85.5185 63.3669C84.2769 63.726 82.6476 64.2594 81.8985 64.5522C79.5076 65.4863 78.4088 65.6934 77.7235 65.3391C76.7951 64.8588 76.6394 63.9134 77.3763 63.2253C77.8154 62.815 79.5301 61.9081 80.3544 61.65C80.5694 61.5831 81.4482 61.2725 82.3076 60.96C83.1669 60.6475 84.3622 60.2584 84.9638 60.095C87.476 59.4125 88.4054 59.1241 88.5932 58.9681C88.7954 58.8003 88.8557 58.4884 88.7132 58.3459ZM36.5654 30.9678C30.4944 27.0875 25.0713 24.6719 21.3188 24.1766C20.4013 24.0556 20.3138 24.0706 20.1072 24.3859C19.0697 25.9694 18.5082 32.5556 18.9516 37.9369C19.1782 40.6844 20.0238 44.9353 20.3438 44.9353C20.4157 44.9353 20.9573 44.3553 21.5473 43.6463C24.1076 40.5697 28.4604 36.6381 31.4285 34.7213C33.0623 33.6656 35.0404 32.505 36.0185 32.0275C36.9904 31.5531 37.1122 31.3175 36.5654 30.9678ZM88.1579 31.1072C88.0132 28.5847 87.5235 26.0681 86.9573 24.9369C86.5885 24.2003 86.456 24.0691 86.0404 24.0288C84.8313 23.9106 79.5966 25.6081 76.6826 27.0628C74.8401 27.9828 74.8616 27.9706 73.3266 28.9353C72.766 29.2878 71.8857 29.8053 71.3701 30.0859C70.2401 30.7006 69.7607 31.125 69.9697 31.3266C70.0526 31.4063 70.9285 31.8875 71.9169 32.3956C75.2563 34.1134 76.7369 35.1403 80.4129 38.2884C81.1113 38.8866 81.8116 39.4844 81.9694 39.6166C82.631 40.1716 86.1357 44.3809 86.1357 44.6206C86.1357 44.7078 86.2654 44.7791 86.4241 44.7791C86.9922 44.7791 87.9351 40.2366 88.1751 36.3416C88.2516 35.0953 88.3057 33.865 88.2947 33.6072C88.2835 33.3494 88.2219 32.2244 88.1579 31.1072Z" fill="black"/>
</svg>
