<svg width="30" height="30" viewBox="0 0 30 30" fill="none" xmlns="http://www.w3.org/2000/svg">
<path d="M10.3159 14.9999L3.76628 21.5496C3.66949 21.6461 3.5927 21.7609 3.5403 21.8871C3.48791 22.0134 3.46094 22.1488 3.46094 22.2855C3.46094 22.4223 3.48791 22.5577 3.5403 22.6839C3.5927 22.8102 3.66949 22.9249 3.76628 23.0215L6.97781 26.233C7.07438 26.3298 7.18909 26.4066 7.31538 26.459C7.44167 26.5114 7.57706 26.5384 7.71379 26.5384C7.85051 26.5384 7.9859 26.5114 8.11219 26.459C8.23848 26.4066 8.35319 26.3298 8.44976 26.233L14.9994 19.6834L21.5491 26.233C21.6457 26.3298 21.7604 26.4066 21.8867 26.459C22.0129 26.5114 22.1483 26.5384 22.2851 26.5384C22.4218 26.5384 22.5572 26.5114 22.6835 26.459C22.8097 26.4066 22.9245 26.3298 23.021 26.233L26.2326 23.0215C26.3293 22.9249 26.4061 22.8102 26.4585 22.6839C26.5109 22.5577 26.5379 22.4223 26.5379 22.2855C26.5379 22.1488 26.5109 22.0134 26.4585 21.8871C26.4061 21.7609 26.3293 21.6461 26.2326 21.5496L19.6829 14.9999L26.2326 8.45025C26.3293 8.35368 26.4061 8.23897 26.4585 8.11268C26.5109 7.98639 26.5379 7.851 26.5379 7.71427C26.5379 7.57755 26.5109 7.44216 26.4585 7.31587C26.4061 7.18958 26.3293 7.07487 26.2326 6.9783L23.021 3.76677C22.9245 3.66998 22.8097 3.59319 22.6835 3.54079C22.5572 3.4884 22.4218 3.46143 22.2851 3.46143C22.1483 3.46143 22.0129 3.4884 21.8867 3.54079C21.7604 3.59319 21.6457 3.66998 21.5491 3.76677L14.9994 10.3164L8.44976 3.7678C8.35319 3.67101 8.23848 3.59422 8.11219 3.54182C7.9859 3.48943 7.85051 3.46246 7.71379 3.46246C7.57706 3.46246 7.44167 3.48943 7.31538 3.54182C7.18909 3.59422 7.07438 3.67101 6.97781 3.7678L3.76628 6.97933C3.66949 7.0759 3.5927 7.19061 3.5403 7.3169C3.48791 7.44319 3.46094 7.57858 3.46094 7.7153C3.46094 7.85203 3.48791 7.98742 3.5403 8.11371C3.5927 8.23999 3.66949 8.35471 3.76628 8.45128L10.3159 14.9999Z" fill="#FF808C"/>
<path d="M3.76731 23.0205L5.37308 24.6262L24.6258 5.37357L23.02 3.7678C22.9234 3.67101 22.8087 3.59422 22.6824 3.54182C22.5561 3.48943 22.4207 3.46246 22.284 3.46246C22.1473 3.46246 22.0119 3.48943 21.8856 3.54182C21.7593 3.59422 21.6446 3.67101 21.548 3.7678L14.9994 10.3164L8.44976 3.76677C8.35319 3.66998 8.23848 3.59319 8.11219 3.54079C7.9859 3.4884 7.85051 3.46143 7.71379 3.46143C7.57706 3.46143 7.44167 3.4884 7.31538 3.54079C7.18909 3.59319 7.07438 3.66998 6.97781 3.76677L3.76628 6.9783C3.66949 7.07487 3.5927 7.18958 3.5403 7.31587C3.48791 7.44216 3.46094 7.57755 3.46094 7.71427C3.46094 7.851 3.48791 7.98639 3.5403 8.11268C3.5927 8.23897 3.66949 8.35368 3.76628 8.45025L10.3159 14.9999L3.76731 21.5496C3.67052 21.6461 3.59373 21.7608 3.54133 21.8871C3.48894 22.0134 3.46197 22.1488 3.46197 22.2855C3.46197 22.4223 3.48894 22.5577 3.54133 22.6839C3.59373 22.8102 3.67052 22.9239 3.76731 23.0205Z" fill="#FFBFC5"/>
<path d="M10.3159 14.9999L3.76628 21.5496C3.66949 21.6461 3.5927 21.7609 3.5403 21.8871C3.48791 22.0134 3.46094 22.1488 3.46094 22.2855C3.46094 22.4223 3.48791 22.5577 3.5403 22.6839C3.5927 22.8102 3.66949 22.9249 3.76628 23.0215L6.97781 26.233C7.07438 26.3298 7.18909 26.4066 7.31538 26.459C7.44167 26.5114 7.57706 26.5384 7.71379 26.5384C7.85051 26.5384 7.9859 26.5114 8.11219 26.459C8.23848 26.4066 8.35319 26.3298 8.44976 26.233L14.9994 19.6834L21.5491 26.233C21.6457 26.3298 21.7604 26.4066 21.8867 26.459C22.0129 26.5114 22.1483 26.5384 22.2851 26.5384C22.4218 26.5384 22.5572 26.5114 22.6835 26.459C22.8097 26.4066 22.9245 26.3298 23.021 26.233L26.2326 23.0215C26.3293 22.9249 26.4061 22.8102 26.4585 22.6839C26.5109 22.5577 26.5379 22.4223 26.5379 22.2855C26.5379 22.1488 26.5109 22.0134 26.4585 21.8871C26.4061 21.7609 26.3293 21.6461 26.2326 21.5496L19.6829 14.9999L26.2326 8.45025C26.3293 8.35368 26.4061 8.23897 26.4585 8.11268C26.5109 7.98639 26.5379 7.851 26.5379 7.71427C26.5379 7.57755 26.5109 7.44216 26.4585 7.31587C26.4061 7.18958 26.3293 7.07487 26.2326 6.9783L23.021 3.76677C22.9245 3.66998 22.8097 3.59319 22.6835 3.54079C22.5572 3.4884 22.4218 3.46143 22.2851 3.46143C22.1483 3.46143 22.0129 3.4884 21.8867 3.54079C21.7604 3.59319 21.6457 3.66998 21.5491 3.76677L14.9994 10.3164L8.44976 3.7678C8.35319 3.67101 8.23848 3.59422 8.11219 3.54182C7.9859 3.48943 7.85051 3.46246 7.71379 3.46246C7.57706 3.46246 7.44167 3.48943 7.31538 3.54182C7.18909 3.59422 7.07438 3.67101 6.97781 3.7678L3.76628 6.97933C3.66949 7.0759 3.5927 7.19061 3.5403 7.3169C3.48791 7.44319 3.46094 7.57858 3.46094 7.7153C3.46094 7.85203 3.48791 7.98742 3.5403 8.11371C3.5927 8.23999 3.66949 8.35471 3.76628 8.45128L10.3159 14.9999Z" stroke="#191919" stroke-linecap="round" stroke-linejoin="round"/>
</svg>
