<svg width="77" height="77" viewBox="0 0 77 77" fill="none" xmlns="http://www.w3.org/2000/svg">
<path d="M38.2532 73.2597C57.581 73.2597 73.2498 57.5869 73.2498 38.2549C73.2498 18.9228 57.5843 3.25 38.2532 3.25C18.9188 3.25 3.25 18.9228 3.25 38.2549C3.25 57.5869 18.9221 73.2597 38.2499 73.2597" stroke="#9FD406" stroke-width="6.5" stroke-linecap="round" stroke-linejoin="round"/>
<path d="M18.1706 41.5105C17.9698 41.7111 17.8105 41.9493 17.7018 42.2115C17.5931 42.4737 17.5371 42.7548 17.5371 43.0386C17.5371 43.3225 17.5931 43.6035 17.7018 43.8657C17.8105 44.1279 17.9698 44.3661 18.1706 44.5667L28.5361 54.9347C29.3808 55.7774 30.7475 55.7774 31.5922 54.9347L58.0667 28.4569C58.4717 28.0519 58.6992 27.5026 58.6992 26.9298C58.6992 26.357 58.4717 25.8077 58.0667 25.4027L53.9627 21.2986C53.5577 20.8935 53.0084 20.666 52.4357 20.666C51.863 20.666 51.3137 20.8935 50.9087 21.2986L30.0641 42.1441L25.3286 37.4064C24.9233 37.0012 24.3737 36.7737 23.8006 36.7737C23.2275 36.7737 22.6779 37.0012 22.2726 37.4064L18.1706 41.5105Z" fill="#9FD406"/>
</svg>
