<svg width="108" height="82" viewBox="0 0 108 82" fill="none" xmlns="http://www.w3.org/2000/svg">
<path d="M78.9675 10.0163C80.7284 9.21161 81.4844 8.42505 81.9244 6.94067C82.1153 6.2963 82.2713 5.65161 82.2713 5.50817C82.2703 5.13536 82.4369 4.75317 82.5997 4.75317C82.6766 4.75317 82.7394 4.87098 82.7394 5.01536C82.7394 5.62317 84.0853 8.42973 84.6572 9.01473C85.1769 9.54598 85.5888 9.77567 87.4663 10.5825C87.7025 10.6838 87.8731 10.8372 87.8444 10.9229C87.8159 11.0085 87.2413 11.3057 86.5678 11.5835C85.8944 11.8613 85.1394 12.2841 84.89 12.5225C84.3644 13.026 83.6609 14.4369 83.2853 15.7413C83.1409 16.2419 82.9856 16.6141 82.9406 16.5688C82.895 16.5235 82.7959 16.1541 82.72 15.7485C82.495 14.5435 81.66 12.9147 80.9597 12.3157C80.6144 12.0197 79.7488 11.5563 79.0356 11.2857C78.3225 11.0147 77.7394 10.7447 77.7394 10.6854C77.7394 10.6263 78.2922 10.3251 78.9675 10.0163Z" fill="black"/>
<path d="M85.8275 2.1188C86.4741 1.78599 87.4269 0.694117 87.4269 0.285679C87.4269 -0.175258 87.7481 -0.0608829 88.0356 0.502555C88.345 1.10912 88.985 1.68755 89.8381 2.1313C89.9906 2.21098 90.1434 2.29036 90.2963 2.36973C90.0838 2.50348 89.8719 2.63786 89.6594 2.77161C88.9781 3.20193 88.4884 3.79755 88.1444 4.61568C88.0731 4.78505 88.0016 4.95443 87.9303 5.12412C87.8 4.86693 87.6697 4.60974 87.5394 4.35286C87.0728 3.43255 86.795 3.16974 85.8644 2.7663C85.63 2.66474 85.3956 2.56286 85.1613 2.4613C85.3834 2.34723 85.6053 2.23287 85.8275 2.1188Z" fill="black"/>
<path d="M91.2841 17.9398C91.6009 17.6495 91.9869 17.372 92.1416 17.3229C92.4869 17.2132 93.5413 17.8198 93.9844 18.3832C94.4528 18.9788 94.2806 19.947 93.6159 20.4538C92.7931 21.0813 92.4306 21.1538 91.6481 20.8479C90.8831 20.5488 90.7503 20.3041 90.7238 19.1491C90.7103 18.5535 90.7809 18.4004 91.2841 17.9398Z" fill="black"/>
<path d="M0.171292 47.8782C0.75973 43.6622 2.56754 39.9222 6.38567 35.0203C8.06004 32.8713 12.7129 28.4672 15.2669 26.6144C18.5807 24.2103 19.4166 23.6947 22.1925 22.341C25.3288 20.8122 28.2547 19.88 30.5519 19.6788C31.9769 19.5538 34.1916 19.795 34.9025 20.1528C35.2866 20.346 35.5135 20.375 35.7619 20.2616C35.9472 20.1772 36.8722 19.7485 37.8175 19.3091C45.6197 15.6816 56.8057 15.1482 65.8644 17.9713C66.8529 18.2794 68.5016 18.9216 69.5288 19.3988C71.261 20.2038 71.4307 20.2525 71.8725 20.0731C74.1863 19.1325 79.4291 19.7978 83.0222 21.4878C86.2204 22.9922 86.996 23.3828 87.6313 23.8119C88.0166 24.0719 88.3688 24.2844 88.4141 24.2844C88.6319 24.2844 92.2891 26.8972 93.5419 27.9482C99.2175 32.7091 102.319 36.3363 104.638 40.925C105.651 42.9303 105.899 43.6085 106.523 46.0813C107.014 48.0247 107.036 48.2372 107.027 51.0032C107.018 53.6335 106.98 54.0344 106.597 55.4563C105.939 57.9019 104.582 60.4885 102.967 62.3744C102.203 63.2675 100.309 64.7744 99.4582 65.1666C97.7244 65.966 97.135 66.0816 94.8488 66.0713C92.8938 66.0628 92.5222 66.0153 91.3544 65.6291C88.9307 64.8275 86.551 63.0719 84.8722 60.8469C84.0675 59.7803 83.9916 59.6535 83.2413 58.1125C82.2766 56.1322 81.8388 54.0494 81.4813 49.7494C80.951 43.3657 80.6579 41.411 79.7932 38.5032C77.1894 29.7469 72.1447 24.1869 64.8222 22.0038C60.785 20.8003 58.1413 20.4525 53.13 20.4669C49.7888 20.4766 49.1138 20.5238 46.9379 20.9003C38.1947 22.4147 33.2429 26.0947 29.3829 33.9466C27.5238 37.7285 26.2557 42.6385 25.9463 47.2532C25.641 51.8141 25.245 54.8069 24.7794 56.0813C23.8116 58.7282 22.635 60.6141 20.9641 62.1963C19.3169 63.756 18.4422 64.3944 17.0307 65.0685C13.8504 66.5863 10.2019 66.4541 7.08817 64.7085C5.74004 63.9525 2.42692 60.5732 2.42692 59.9538C2.42692 59.9 2.33067 59.7447 2.21317 59.6091C1.81629 59.1513 0.716606 56.0153 0.386918 54.4022C-0.0387068 52.321 -0.117145 49.9453 0.171292 47.8782ZM31.4504 23.6647C30.8035 23.6828 28.7032 24.1656 27.4613 24.5816C24.555 25.5553 19.8222 28.3103 17.1144 30.605C16.556 31.0785 15.7472 31.7422 15.3175 32.0797C14.3879 32.8097 10.2504 36.9606 9.73848 37.6769C9.54129 37.9525 9.04598 38.6038 8.63786 39.1238C8.22973 39.6438 7.89567 40.1041 7.89567 40.1469C7.89567 40.1897 7.63786 40.5919 7.32286 41.04C6.07223 42.8194 4.96942 45.6422 4.52192 48.211C4.02536 51.0625 4.49786 54.6922 5.67411 57.0557C7.13098 59.9841 9.5741 61.9953 11.9335 62.2094C13.2538 62.3288 15.1379 61.7328 16.4113 60.7925C19.5466 58.4772 20.92 55.6991 21.3369 50.8282C22.0154 42.9032 22.1988 41.7519 23.4413 37.6438C23.675 36.8703 23.9997 35.9394 24.1625 35.575C24.325 35.2107 24.4582 34.845 24.4582 34.7622C24.4582 34.4103 26.7482 30.086 27.6338 28.7657C28.7719 27.0685 30.1085 25.3875 31.0038 24.5263C31.6669 23.8878 31.7875 23.6557 31.4504 23.6647ZM102.819 48.2313C102.597 46.8707 102.399 46.1638 101.957 45.1438C101.808 44.8 101.458 43.9913 101.181 43.3469C100.903 42.7025 100.472 41.8728 100.223 41.5032C99.9744 41.1338 99.7707 40.7966 99.7707 40.7544C99.7707 40.6319 98.5666 39.0163 97.336 37.4875C96.146 36.0094 92.9485 32.7978 91.4894 31.6147C88.5872 29.2613 86.5857 27.8778 84.4535 26.751C81.7435 25.3188 77.2538 23.6594 76.0891 23.6594C75.6691 23.6594 75.8629 24.0232 76.841 25.071C79.4522 27.8672 80.6935 29.8335 82.9535 34.7532C84.351 37.7957 85.4113 43.1513 85.9425 49.8478C86.2322 53.5016 86.36 54.2169 87.0169 55.8732C88.1838 58.8138 89.5454 60.3503 92.1535 61.6691C93.0519 62.1235 93.2554 62.1632 94.6925 62.1691C96.1838 62.1747 96.3085 62.1485 97.4269 61.5981C98.0885 61.2722 98.9297 60.6938 99.3588 60.27C100.029 59.6072 100.317 59.2338 101.142 57.9538C101.661 57.15 102.305 55.5653 102.578 54.425C102.977 52.7525 103.089 49.8816 102.819 48.2313Z" fill="black"/>
<path d="M26.5128 67.3313C26.661 65.6632 27.3132 62.6538 27.7428 61.655C27.9335 61.2119 28.3622 60.6029 28.696 60.3013C29.6194 59.4672 30.3788 59.59 31.2941 60.7216C31.9491 61.5316 31.9594 62.2838 31.3419 64.24C30.7669 66.0619 30.4947 67.8404 30.62 68.9594C30.8025 70.5919 31.2194 72.0169 31.8119 73.0344C32.3772 74.005 33.7566 75.5197 34.4225 75.9013C34.5953 76.0003 35.1925 76.346 35.7497 76.67C37.1975 77.5106 39.0319 77.9453 40.6282 77.8256C42.74 77.6672 45.3428 76.7366 46.9575 75.5625C47.9978 74.8057 49.3319 73.4216 49.9957 72.4094C50.6485 71.4144 51.3891 69.6582 51.251 69.4344C51.2125 69.3719 50.4328 68.9553 49.5182 68.5088C48.6035 68.0619 47.5303 67.4 47.1332 67.0372C46.7363 66.6747 46.2197 66.2585 45.986 66.1119C45.4282 65.7625 44.3769 64.3278 43.8641 63.2163C43.5372 62.5075 43.4428 62.0304 43.3922 60.8213C43.3347 59.4482 43.366 59.2335 43.7335 58.4566C44.7688 56.2675 47.2407 55.05 51.5675 54.5975C54.7388 54.2663 58.9625 54.8928 61.2228 56.0307C62.06 56.4522 63.016 57.3563 63.4125 58.1019C63.7007 58.6428 63.7513 58.996 63.7528 60.475C63.7535 61.0541 63.7544 61.6332 63.755 62.2125C63.5319 62.6525 63.3088 63.0928 63.0857 63.5332C62.5653 64.5588 62.1153 65.1541 61.07 66.1994C59.916 67.3535 59.4603 67.6816 57.8722 68.5022C56.8538 69.0288 56.0207 69.4944 56.0207 69.5366C56.0207 69.6766 56.9907 71.3753 57.661 72.4094C58.306 73.4044 59.9088 75.0222 61.1153 75.8966C63.5207 77.6394 66.8254 78.3013 69.3632 77.5491C71.2566 76.9875 72.1513 76.476 74.0972 74.8416C75.1869 73.9266 76.3188 71.7894 76.6563 70.0103C76.9947 68.2253 76.8135 66.8688 75.7928 63.5482C75.5975 62.9125 75.4016 62.2763 75.2063 61.6403C75.321 61.4547 75.4357 61.2691 75.5503 61.0838C76.2547 59.9441 77.6388 59.7125 78.616 60.5707C80.1538 61.9207 81.4753 67.1297 81.0153 70.0269C80.6969 72.0347 79.8494 74.2153 78.7953 75.7406C77.7588 77.2413 75.9063 78.8616 73.5503 80.3291C72.8594 80.7594 70.6332 81.466 69.3988 81.6463C67.561 81.915 64.851 81.7422 63.13 81.2463C61.5003 80.7766 59.4069 79.7869 58.2863 78.9563C56.6735 77.761 54.1457 74.8119 54.1457 74.1257C54.1457 74.041 54.005 73.9719 53.8332 73.9719C53.6613 73.9719 53.5207 74.0482 53.5207 74.1413C53.5207 74.2341 53.1025 74.8494 52.5913 75.5085C50.5747 78.1082 47.8175 80.0116 44.38 81.1769C42.8563 81.6932 42.756 81.7063 40.3175 81.6997C37.4957 81.6925 36.4197 81.4713 34.0941 80.4203C32.1397 79.5372 31.2525 78.8641 29.5888 77.0013C28.3516 75.6156 27.6219 74.3685 27.0588 72.6778C26.7047 71.6138 26.3366 69.5025 26.3853 68.8157C26.3944 68.6866 26.4519 68.0188 26.5128 67.3313ZM59.7316 59.791C58.6303 58.9088 56.4647 58.4475 53.3644 58.435C50.8216 58.4247 49.8747 58.5935 48.4744 59.3082C47.756 59.6747 47.3557 60.4682 47.5125 61.2147C47.6807 62.0128 48.485 63.2888 49.2369 63.951C52.0341 66.4128 56.2513 66.2032 58.5763 63.4869C59.6825 62.1947 60.2932 60.241 59.7316 59.791Z" fill="black"/>
<path d="M63.1938 45.7522C63.7823 44.4566 64.8747 43.8244 66.5347 43.8191C68.2226 43.8135 69.3394 44.5682 69.8335 46.0476C70.1785 47.0813 70.1441 47.8188 69.7066 48.7585C69.4401 49.3307 69.1169 49.7094 68.5776 50.0807C67.9007 50.5463 67.7066 50.6013 66.7257 50.6066C65.8285 50.6116 65.4744 50.5335 64.7707 50.1763C63.7732 49.6698 63.321 49.0654 63.0719 47.9029C62.8354 46.7998 62.8519 46.5051 63.1938 45.7522Z" fill="black"/>
<path d="M37.7903 45.8988C38.0247 45.2669 38.8444 44.3679 39.4975 44.0276C40.0429 43.7432 41.7163 43.6482 42.4697 43.8585C43.0722 44.0269 44.115 45.0066 44.406 45.6779C44.5397 45.9854 44.6485 46.6394 44.6478 47.1307C44.6463 48.8044 43.6919 50.0185 42.0391 50.4488C40.0975 50.9548 38.1741 49.8601 37.7466 48.006C37.5472 47.1426 37.5603 46.5201 37.7903 45.8988Z" fill="black"/>
</svg>
