<svg width="34" height="34" viewBox="0 0 34 34" fill="none" xmlns="http://www.w3.org/2000/svg">
<g clip-path="url(#clip0_2941_28681)">
<path d="M17 34C26.3888 34 34 26.3888 34 17C34 7.61116 26.3888 0 17 0C7.61116 0 0 7.61116 0 17C0 26.3888 7.61116 34 17 34Z" fill="#FF0063"/>
<path d="M16.0838 16.2576H9.98102C9.47495 16.2576 9.06543 15.8481 9.06543 15.342C9.06543 14.8359 9.47495 14.4264 9.98102 14.4264H16.0838C16.5899 14.4264 16.9994 14.8359 16.9994 15.342C16.9994 15.8481 16.5899 16.2576 16.0838 16.2576Z" fill="white"/>
<path d="M13.0342 11.8766C13.2639 11.8768 13.4492 12.0628 13.4492 12.2926V18.3951C13.4491 18.6249 13.2639 18.81 13.0342 18.8102C12.8043 18.8102 12.6182 18.625 12.6182 18.3951V12.2926L12.627 12.2086C12.6655 12.0189 12.8329 11.8766 13.0342 11.8766Z" fill="white" stroke="white"/>
<path d="M11.0794 27.4443C9.09173 27.4443 7.47363 25.8262 7.47363 23.8385C7.47363 21.8509 9.09173 20.2328 11.0794 20.2328C13.0671 20.2328 14.6851 21.8509 14.6851 23.8385C14.6851 25.8262 13.0671 27.4443 11.0794 27.4443ZM11.0794 22.0606C10.1005 22.0606 9.30148 22.8564 9.30148 23.8385C9.30148 24.8207 10.0972 25.6165 11.0794 25.6165C12.0616 25.6165 12.8573 24.8207 12.8573 23.8385C12.8573 22.8564 12.0616 22.0606 11.0794 22.0606Z" fill="white"/>
<path d="M22.9222 27.4443C20.9345 27.4443 19.3164 25.8262 19.3164 23.8385C19.3164 21.8509 20.9345 20.2328 22.9222 20.2328C24.9098 20.2328 26.5279 21.8509 26.5279 23.8385C26.5279 25.8262 24.9098 27.4443 22.9222 27.4443ZM22.9222 22.0606C21.9433 22.0606 21.1443 22.8564 21.1443 23.8385C21.1443 24.8207 21.94 25.6165 22.9222 25.6165C23.9043 25.6165 24.7001 24.8207 24.7001 23.8385C24.7001 22.8564 23.9043 22.0606 22.9222 22.0606Z" fill="white"/>
<path d="M20.2853 25.2902H13.7164C13.2103 25.2902 12.8008 24.8806 12.8008 24.3746C12.8008 23.8685 13.2103 23.459 13.7164 23.459H20.2853C20.7914 23.459 21.2009 23.8685 21.2009 24.3746C21.2009 24.8806 20.7914 25.2902 20.2853 25.2902Z" fill="white"/>
<path d="M28.8423 23.1361C28.3363 23.1361 27.9268 22.7266 27.9268 22.2205V16.8369C27.9268 16.3308 28.3363 15.9213 28.8423 15.9213C29.3484 15.9213 29.7579 16.3308 29.7579 16.8369V22.2205C29.7579 22.7266 29.3484 23.1361 28.8423 23.1361Z" fill="white"/>
<path d="M5.1568 23.136C4.65073 23.136 4.24121 22.7265 4.24121 22.2204V9.30231C4.24121 8.79624 4.65073 8.38672 5.1568 8.38672C5.66287 8.38672 6.07239 8.79624 6.07239 9.30231V22.2204C6.07239 22.7265 5.66287 23.136 5.1568 23.136Z" fill="white"/>
<path d="M24.5373 10.2179H5.1568C4.65073 10.2179 4.24121 9.80838 4.24121 9.30231C4.24121 8.79624 4.65073 8.38672 5.1568 8.38672H24.5373C25.0434 8.38672 25.4529 8.79624 25.4529 9.30231C25.4529 9.80838 25.0434 10.2179 24.5373 10.2179Z" fill="white"/>
<path d="M20.2291 17.7557C19.723 17.7557 19.3135 17.3462 19.3135 16.8401V9.30231C19.3135 8.79624 19.723 8.38672 20.2291 8.38672C20.7351 8.38672 21.1447 8.79624 21.1447 9.30231V16.8401C21.1447 17.3462 20.7351 17.7557 20.2291 17.7557Z" fill="white"/>
<path d="M8.43917 25.2902C8.26604 25.2902 8.09291 25.2403 7.93975 25.1404L4.65695 22.9862C4.23411 22.7099 4.11758 22.1406 4.39393 21.7177C4.67027 21.2949 5.2396 21.1784 5.66243 21.4547L8.94524 23.6088C9.36807 23.8852 9.4846 24.4545 9.20826 24.8774C9.0318 25.1437 8.73881 25.2902 8.4425 25.2902H8.43917Z" fill="white"/>
<path d="M26.6911 25.2902H25.5591C25.0531 25.2902 24.6436 24.8806 24.6436 24.3746C24.6436 23.8685 25.0531 23.459 25.5591 23.459H26.6911C27.1972 23.459 27.6067 23.8685 27.6067 24.3746C27.6067 24.8806 27.1972 25.2902 26.6911 25.2902Z" fill="white"/>
<path d="M28.8423 18.8312C28.7824 18.8312 28.7225 18.8245 28.6626 18.8112C28.606 18.8012 28.546 18.7845 28.4894 18.7579C28.4362 18.7379 28.3829 18.7046 28.3329 18.6747C28.283 18.6447 28.2364 18.6048 28.1931 18.5615C28.0233 18.3917 27.9268 18.1553 27.9268 17.9156C27.9268 17.8556 27.9334 17.7957 27.9434 17.7358C27.9567 17.6792 27.9734 17.6192 27.9967 17.5626C28.02 17.5094 28.0499 17.4561 28.0832 17.4062C28.1165 17.3562 28.1532 17.3096 28.1964 17.2663C28.2397 17.2264 28.2863 17.1864 28.3363 17.1531C28.3862 17.1198 28.4395 17.0932 28.4928 17.0699C28.5494 17.0499 28.606 17.0299 28.6659 17.0166C28.7857 16.9933 28.9056 16.9933 29.0221 17.0166C29.0787 17.0299 29.1387 17.0466 29.1953 17.0699C29.2485 17.0932 29.3018 17.1232 29.3518 17.1531C29.4017 17.1864 29.4483 17.2264 29.4916 17.2663C29.5315 17.3096 29.5715 17.3562 29.6048 17.4062C29.6381 17.4561 29.668 17.5094 29.688 17.5626C29.7113 17.6192 29.728 17.6758 29.7413 17.7358C29.7513 17.7924 29.7579 17.8556 29.7579 17.9156C29.7579 18.1553 29.6614 18.3917 29.4916 18.5615C29.4483 18.6048 29.4017 18.6447 29.3518 18.6747C29.3018 18.7046 29.2485 18.7379 29.1953 18.7579C29.1387 18.7812 29.0821 18.7979 29.0221 18.8112C28.9655 18.8245 28.9023 18.8312 28.8423 18.8312Z" fill="white"/>
<path d="M28.8423 17.7557H20.2291C19.723 17.7557 19.3135 17.3462 19.3135 16.8402C19.3135 16.3341 19.723 15.9246 20.2291 15.9246H28.8423C29.3483 15.9246 29.7579 16.3341 29.7579 16.8402C29.7579 17.3462 29.3483 17.7557 28.8423 17.7557Z" fill="white"/>
<path d="M28.8453 17.7557C28.529 17.7557 28.2194 17.5893 28.0496 17.293L23.7447 9.75516C23.495 9.31567 23.6448 8.75633 24.0843 8.50663C24.5237 8.25692 25.0831 8.40674 25.3328 8.84623L29.6377 16.384C29.8874 16.8235 29.7376 17.3828 29.2981 17.6326C29.155 17.7158 28.9985 17.7524 28.8453 17.7524V17.7557Z" fill="white"/>
<path d="M26.691 25.2902C26.1849 25.2902 25.7754 24.8807 25.7754 24.3747C25.7754 23.8686 26.1849 23.4591 26.691 23.4591C27.3735 23.4591 27.9295 22.9031 27.9295 22.2205C27.9295 21.7144 28.339 21.3049 28.8451 21.3049C29.3512 21.3049 29.7607 21.7144 29.7607 22.2205C29.7607 23.9119 28.3857 25.2902 26.691 25.2902Z" fill="white"/>
</g>
<defs>
<clipPath id="clip0_2941_28681">
<rect width="34" height="34" fill="white"/>
</clipPath>
</defs>
</svg>
