<svg width="34" height="34" viewBox="0 0 34 34" fill="none" xmlns="http://www.w3.org/2000/svg">
<g clip-path="url(#clip0_2941_28341)">
<path d="M17 34C26.3888 34 34 26.3888 34 17C34 7.61116 26.3888 0 17 0C7.61116 0 0 7.61116 0 17C0 26.3888 7.61116 34 17 34Z" fill="#15BEB2"/>
<path d="M23.1563 30.381C22.9599 30.381 22.7668 30.2978 22.6336 30.1446C22.2141 29.6718 12.3657 18.515 10.5478 16.261C9.74542 15.2655 9.38584 13.088 9.78204 11.5998C10.3547 9.44564 11.7298 7.53789 12.096 7.05512C12.1293 7.00851 12.1626 6.96523 12.1959 6.92528C12.4422 6.63562 12.8751 6.59566 13.1681 6.83538C13.461 7.0751 13.5077 7.50792 13.2713 7.80757C13.2713 7.80757 13.2546 7.82755 13.2313 7.86084C13.0648 8.0939 12.4356 9.15598 13.6808 10.5377C15.5253 12.582 25.7632 24.2516 25.8665 24.3681C26.0462 24.5745 26.0895 24.8642 25.9763 25.1139L23.7889 29.9715C23.6923 30.1879 23.4926 30.3377 23.2595 30.3744C23.2262 30.381 23.1896 30.381 23.1563 30.381ZM11.8097 10.1814C11.54 10.7308 11.2936 11.3368 11.1305 11.9594C10.8275 13.0947 11.1571 14.7927 11.6365 15.3887C13.1547 17.2698 20.6126 25.7431 22.9665 28.4167L24.5247 24.9507C22.8234 23.013 14.3067 13.3111 12.6487 11.4699C12.2558 11.0338 11.9861 10.601 11.8097 10.1814Z" fill="white"/>
<path d="M13.8242 18.8218C13.8778 18.8218 13.9306 18.8443 13.9697 18.8892V18.8901L17.1855 22.5854L17.1865 22.5864C17.2498 22.6592 17.2494 22.771 17.1855 22.8442L11.1699 29.6655C11.1299 29.7105 11.0749 29.7349 11.0205 29.7349H10.999C10.9307 29.7259 10.876 29.6859 10.8486 29.6313L10.8477 29.6294L8.74512 25.4702H9.18457L10.7344 28.5356L11.0674 29.1948L11.5557 28.6411L16.4902 23.0435L16.7793 22.7153L16.4922 22.3853L14.1943 19.7476L13.8203 19.3188L13.4424 19.7456L9.11426 24.6392L8.6123 25.2065L8.4834 24.9517L8.48242 24.9487L8.46484 24.895C8.45535 24.8389 8.47085 24.7787 8.51074 24.7339L8.51172 24.7319L13.6748 18.8901C13.7148 18.8451 13.7698 18.8218 13.8242 18.8218Z" fill="white" stroke="white"/>
<path d="M20.2502 19.7168H20.2435C20.0471 19.7168 19.8606 19.6302 19.7274 19.4804L16.5212 15.8347C16.2881 15.5717 16.2915 15.1755 16.5212 14.9158C16.5545 14.8792 19.7674 11.2401 20.5265 10.3345C21.1091 9.64199 21.239 8.96612 20.9593 8.08382C20.8561 7.75754 21.0093 7.40129 21.3156 7.25147C21.6219 7.09831 21.9981 7.19487 22.1945 7.47787C22.2844 7.60771 24.382 10.6441 24.382 13.1845C24.382 14.706 23.9591 15.878 23.0136 16.98C22.1845 17.9456 20.8162 19.4338 20.7596 19.4971C20.6264 19.6402 20.4433 19.7201 20.2468 19.7201L20.2502 19.7168ZM17.9695 15.3752L20.2601 17.9788C20.7429 17.4461 21.4621 16.6504 21.9615 16.0711C22.6939 15.2188 22.9936 14.3831 22.9936 13.1845C22.9936 12.2556 22.6174 11.1902 22.1979 10.2912C22.0514 10.6142 21.8516 10.9271 21.5952 11.2301C20.9826 11.9626 18.8718 14.3598 17.9728 15.3786L17.9695 15.3752Z" fill="white"/>
<path d="M13.1648 11.6963C12.9883 11.6963 12.8185 11.633 12.6887 11.5132C12.6421 11.4699 11.54 10.4145 11.54 8.71313C11.54 6.82535 13.8007 4.72449 17.0402 4.72449C19.8536 4.72449 21.9611 6.57564 22.3407 7.85414C22.5171 8.44677 22.7801 9.97498 21.4451 11.4C21.3019 11.5531 21.0955 11.633 20.8857 11.6164C20.676 11.5997 20.4862 11.4932 20.3663 11.3201C20.3397 11.2834 19.4907 10.1881 17.0203 10.1281C14.5931 10.0749 13.7874 11.3134 13.7541 11.3667C13.6442 11.5431 13.4578 11.663 13.2514 11.6896C13.2214 11.693 13.1914 11.6963 13.1581 11.6963H13.1648ZM17.0436 6.11285C14.5731 6.11285 12.9351 7.67768 12.9351 8.7098C12.9351 9.20255 13.0749 9.61207 13.2314 9.91172C13.8939 9.35238 15.0992 8.68316 17.0602 8.73643C18.9879 8.78305 20.1832 9.38567 20.8458 9.87842C21.202 9.21254 21.1154 8.5966 21.0122 8.24701C20.8391 7.6577 19.3542 6.10952 17.0436 6.10952V6.11285Z" fill="white"/>
</g>
<defs>
<clipPath id="clip0_2941_28341">
<rect width="34" height="34" fill="white"/>
</clipPath>
</defs>
</svg>
