<svg width="28" height="28" viewBox="0 0 28 28" fill="none" xmlns="http://www.w3.org/2000/svg">
<g clip-path="url(#clip0_2941_28307)">
<path d="M14 28C6.28102 28 0 21.719 0 14C0 6.28102 6.28102 0 14 0C21.719 0 28 6.28102 28 14C28 21.719 21.719 28 14 28Z" fill="#222221"/>
<path d="M17.5434 11.4633C16.9913 11.4633 16.5369 11.0147 16.5369 10.4568C16.5369 9.70903 15.9272 9.09933 15.1794 9.09933C14.6272 9.09933 14.1729 8.65068 14.1729 8.09276C14.1729 7.53483 14.6215 7.08618 15.1794 7.08618C17.0373 7.08618 18.5443 8.59892 18.5443 10.451C18.5443 11.0032 18.0956 11.4576 17.5377 11.4576L17.5434 11.4633Z" fill="white"/>
<path d="M10.4568 11.4634C9.90459 11.4634 9.4502 11.0148 9.4502 10.4569C9.4502 8.59903 10.9629 7.09204 12.815 7.09204C13.3672 7.09204 13.8216 7.54069 13.8216 8.09861C13.8216 8.65654 13.373 9.10519 12.815 9.10519C12.0673 9.10519 11.4576 9.71488 11.4576 10.4626C11.4576 11.0148 11.0089 11.4692 10.451 11.4692L10.4568 11.4634Z" fill="white"/>
<path d="M15.1853 20.9138C14.6331 20.9138 14.1787 20.4651 14.1787 19.9072C14.1787 19.3493 14.6274 18.9006 15.1853 18.9006C15.933 18.9006 16.5427 18.2909 16.5427 17.5432C16.5427 16.991 16.9914 16.5366 17.5493 16.5366C18.1072 16.5366 18.5559 16.9853 18.5559 17.5432C18.5559 19.401 17.0431 20.908 15.191 20.908L15.1853 20.9138Z" fill="white"/>
<path d="M12.8209 20.9136C10.963 20.9136 9.45605 19.4009 9.45605 17.5488C9.45605 16.9966 9.9047 16.5422 10.4626 16.5422C11.0206 16.5422 11.4692 16.9909 11.4692 17.5488C11.4692 18.2966 12.0789 18.9062 12.8266 18.9062C13.3788 18.9062 13.8332 19.3549 13.8332 19.9128C13.8332 20.4707 13.3846 20.9194 12.8266 20.9194L12.8209 20.9136Z" fill="white"/>
<path d="M17.5429 18.5498C16.9908 18.5498 16.5364 18.1011 16.5364 17.5432C16.5364 15.9787 15.5586 15.5761 13.6777 14.9491C11.8946 14.3567 9.44434 13.5399 9.44434 10.4512C9.44434 9.89898 9.89298 9.44458 10.4509 9.44458C11.0088 9.44458 11.4575 9.89322 11.4575 10.4512C11.4575 12.0157 12.4353 12.4183 14.3162 13.0452C16.0992 13.6377 18.5495 14.4544 18.5495 17.5432C18.5495 18.0954 18.1009 18.5498 17.5429 18.5498Z" fill="white"/>
<path d="M15.185 9.09933H12.821C12.2688 9.09933 11.8145 8.65068 11.8145 8.09276C11.8145 7.53483 12.2631 7.08618 12.821 7.08618H15.185C15.7372 7.08618 16.1916 7.53483 16.1916 8.09276C16.1916 8.65068 15.743 9.09933 15.185 9.09933Z" fill="white"/>
<path d="M15.185 20.9138H12.821C12.2688 20.9138 11.8145 20.4651 11.8145 19.9072C11.8145 19.3493 12.2631 18.9006 12.821 18.9006H15.185C15.7372 18.9006 16.1916 19.3493 16.1916 19.9072C16.1916 20.4651 15.743 20.9138 15.185 20.9138Z" fill="white"/>
<path d="M13.9997 9.09932C13.4476 9.09932 12.9932 8.65068 12.9932 8.09275V5.72874C12.9932 5.17656 13.4418 4.72217 13.9997 4.72217C14.5577 4.72217 15.0063 5.17081 15.0063 5.72874V8.09275C15.0063 8.64493 14.5577 9.09932 13.9997 9.09932Z" fill="white"/>
<path d="M13.9997 23.2778C13.4476 23.2778 12.9932 22.8291 12.9932 22.2712V19.9072C12.9932 19.355 13.4418 18.9006 13.9997 18.9006C14.5577 18.9006 15.0063 19.3493 15.0063 19.9072V22.2712C15.0063 22.8234 14.5577 23.2778 13.9997 23.2778Z" fill="white"/>
</g>
<defs>
<clipPath id="clip0_2941_28307">
<rect width="28" height="28" fill="white"/>
</clipPath>
</defs>
</svg>
