<svg width="30" height="30" viewBox="0 0 30 30" fill="none" xmlns="http://www.w3.org/2000/svg">
<path d="M15 30C6.72973 30 0 23.2717 0 14.9969C0 6.72209 6.72973 0 15 0C23.2703 0 30 6.72833 30 14.9969C30 23.2654 23.2703 29.9938 15 29.9938V30ZM15 2.15132C7.91476 2.15132 2.15177 7.91312 2.15177 14.9969C2.15177 22.0806 7.91476 27.8424 15 27.8424C22.0852 27.8424 27.8482 22.0806 27.8482 14.9969C27.8482 7.91312 22.0915 2.15132 15 2.15132Z" fill="#9B9B9B"/>
<path d="M9.09629 22.1118C8.06392 22.1118 7.22656 21.2745 7.22656 20.2421C7.22656 19.9324 7.47318 19.6858 7.78289 19.6858C8.0926 19.6858 8.33922 19.9324 8.33922 20.2421C8.33922 20.6551 8.67761 20.9934 9.09055 20.9934C9.40026 20.9934 9.64688 21.2401 9.64688 21.5498C9.64688 21.8595 9.40026 22.1061 9.09055 22.1061L9.09629 22.1118Z" fill="#9B9B9B"/>
<path d="M20.902 22.1118C20.5923 22.1118 20.3457 21.8652 20.3457 21.5555C20.3457 21.2458 20.5923 20.9992 20.902 20.9992C21.315 20.9992 21.6534 20.6608 21.6534 20.2479C21.6534 19.9381 21.9 19.6915 22.2097 19.6915C22.5194 19.6915 22.766 19.9381 22.766 20.2479C22.766 21.2802 21.9287 22.1176 20.8963 22.1176L20.902 22.1118Z" fill="#9B9B9B"/>
<path d="M20.9013 22.1118H9.09551C8.78573 22.1118 8.53906 21.8652 8.53906 21.5555C8.53906 21.2458 8.78573 20.9992 9.09551 20.9992H20.8956C21.2054 20.9992 21.452 21.2458 21.452 21.5555C21.452 21.8652 21.2054 22.1118 20.8956 22.1118H20.9013Z" fill="#9B9B9B"/>
<path d="M7.78875 20.8042C7.47904 20.8042 7.23242 20.5576 7.23242 20.2479V9.75789C7.23242 9.44818 7.47904 9.20156 7.78875 9.20156C8.09846 9.20156 8.34508 9.44818 8.34508 9.75789V20.2479C8.34508 20.5576 8.09846 20.8042 7.78875 20.8042Z" fill="#9B9B9B"/>
<path d="M22.2087 20.8042C21.899 20.8042 21.6523 20.5576 21.6523 20.2479V9.75789C21.6523 9.44818 21.899 9.20156 22.2087 9.20156C22.5184 9.20156 22.765 9.44818 22.765 9.75789V20.2479C22.765 20.5576 22.5184 20.8042 22.2087 20.8042Z" fill="#9B9B9B"/>
<path d="M22.2105 10.3142H7.78887C7.47909 10.3142 7.23242 10.0676 7.23242 9.75789C7.23242 9.44818 7.47909 9.20156 7.78887 9.20156H22.2163C22.5261 9.20156 22.7727 9.44818 22.7727 9.75789C22.7727 10.0676 22.5261 10.3142 22.2163 10.3142H22.2105Z" fill="#9B9B9B"/>
<path d="M11.0641 11.6219C10.7544 11.6219 10.5078 11.3753 10.5078 11.0655V8.44449C10.5078 8.13478 10.7544 7.88816 11.0641 7.88816C11.3739 7.88816 11.6205 8.13478 11.6205 8.44449V11.0655C11.6205 11.3753 11.3739 11.6219 11.0641 11.6219Z" fill="#9B9B9B"/>
<path d="M13.6852 11.6219C13.3755 11.6219 13.1289 11.3753 13.1289 11.0655V8.44449C13.1289 8.13478 13.3755 7.88816 13.6852 7.88816C13.9949 7.88816 14.2416 8.13478 14.2416 8.44449V11.0655C14.2416 11.3753 13.9949 11.6219 13.6852 11.6219Z" fill="#9B9B9B"/>
<path d="M16.3141 11.6219C16.0044 11.6219 15.7578 11.3753 15.7578 11.0655V8.44449C15.7578 8.13478 16.0044 7.88816 16.3141 7.88816C16.6239 7.88816 16.8705 8.13478 16.8705 8.44449V11.0655C16.8705 11.3753 16.6239 11.6219 16.3141 11.6219Z" fill="#9B9B9B"/>
<path d="M18.9352 11.6219C18.6255 11.6219 18.3789 11.3753 18.3789 11.0655V8.44449C18.3789 8.13478 18.6255 7.88816 18.9352 7.88816C19.2449 7.88816 19.4916 8.13478 19.4916 8.44449V11.0655C19.4916 11.3753 19.2449 11.6219 18.9352 11.6219Z" fill="#9B9B9B"/>
<path d="M14.345 18.837C14.2016 18.837 14.0582 18.7853 13.9492 18.6764L11.3276 16.0553C11.1096 15.8374 11.1096 15.4875 11.3276 15.2696C11.5455 15.0516 11.8955 15.0516 12.1135 15.2696L14.345 17.4949L17.8844 13.9562C18.1024 13.7382 18.4523 13.7382 18.6703 13.9562C18.8883 14.1741 18.8883 14.524 18.6703 14.7419L14.7351 18.6764C14.6261 18.7853 14.4827 18.837 14.3392 18.837H14.345Z" fill="#9B9B9B"/>
</svg>
