<svg width="30" height="30" viewBox="0 0 30 30" fill="none" xmlns="http://www.w3.org/2000/svg">
<g clip-path="url(#clip0_2105_41968)">
<path d="M14.9969 30C6.72833 30 0 23.2717 0 14.9969C0 6.72209 6.72833 0 14.9969 0C23.2654 0 29.9938 6.72833 29.9938 14.9969C29.9938 23.2654 23.2654 29.9938 14.9969 29.9938V30ZM14.9969 2.15132C7.91312 2.15132 2.15132 7.91312 2.15132 14.9969C2.15132 22.0806 7.91312 27.8424 14.9969 27.8424C22.0806 27.8424 27.8424 22.0806 27.8424 14.9969C27.8424 7.91312 22.0869 2.15132 14.9969 2.15132Z" fill="#9B9B9B"/>
<path d="M12.6532 11.3864C12.3788 11.3864 12.1543 11.1619 12.1543 10.8875V8.53668C12.1543 8.26231 12.3788 8.03783 12.6532 8.03783C12.9275 8.03783 13.152 8.26231 13.152 8.53668V10.8875C13.152 11.1619 12.9275 11.3864 12.6532 11.3864Z" fill="#9B9B9B"/>
<path d="M17.3485 11.3864C17.0741 11.3864 16.8496 11.1619 16.8496 10.8875V8.53668C16.8496 8.26231 17.0741 8.03783 17.3485 8.03783C17.6228 8.03783 17.8473 8.26231 17.8473 8.53668V10.8875C17.8473 11.1619 17.6228 11.3864 17.3485 11.3864Z" fill="#9B9B9B"/>
<path d="M17.349 11.3864H12.6473C12.3729 11.3864 12.1484 11.1619 12.1484 10.8875C12.1484 10.6132 12.3729 10.3887 12.6473 10.3887H17.349C17.6234 10.3887 17.8479 10.6132 17.8479 10.8875C17.8479 11.1619 17.6234 11.3864 17.349 11.3864Z" fill="#9B9B9B"/>
<path d="M17.349 9.03554H12.6473C12.3729 9.03554 12.1484 8.81105 12.1484 8.53668C12.1484 8.26231 12.3729 8.03783 12.6473 8.03783H17.349C17.6234 8.03783 17.8479 8.26231 17.8479 8.53668C17.8479 8.81105 17.6234 9.03554 17.349 9.03554Z" fill="#9B9B9B"/>
<path d="M12.6527 10.2141H9.71565C9.44128 10.2141 9.2168 9.98961 9.2168 9.71523C9.2168 9.44086 9.44128 9.21638 9.71565 9.21638H12.6527C12.927 9.21638 13.1515 9.44086 13.1515 9.71523C13.1515 9.98961 12.927 10.2141 12.6527 10.2141Z" fill="#9B9B9B"/>
<path d="M20.2855 10.2141H17.3485C17.0741 10.2141 16.8496 9.98961 16.8496 9.71523C16.8496 9.44086 17.0741 9.21638 17.3485 9.21638H20.2855C20.5599 9.21638 20.7843 9.44086 20.7843 9.71523C20.7843 9.98961 20.5599 10.2141 20.2855 10.2141Z" fill="#9B9B9B"/>
<path d="M20.286 21.9622C20.0116 21.9622 19.7871 21.7377 19.7871 21.4633V9.70899C19.7871 9.43462 20.0116 9.21014 20.286 9.21014C20.5603 9.21014 20.7848 9.43462 20.7848 9.70899V21.4571C20.7848 21.7314 20.5603 21.9559 20.286 21.9559V21.9622Z" fill="#9B9B9B"/>
<path d="M9.70979 21.9622C9.43542 21.9622 9.21094 21.7377 9.21094 21.4633V9.70899C9.21094 9.43462 9.43542 9.21014 9.70979 9.21014C9.98417 9.21014 10.2087 9.43462 10.2087 9.70899V21.4571C10.2087 21.7314 9.98417 21.9559 9.70979 21.9559V21.9622Z" fill="#9B9B9B"/>
<path d="M20.2856 21.9622H9.70979C9.43542 21.9622 9.21094 21.7377 9.21094 21.4633C9.21094 21.1889 9.43542 20.9645 9.70979 20.9645H20.2856C20.5599 20.9645 20.7844 21.1889 20.7844 21.4633C20.7844 21.7377 20.5599 21.9622 20.2856 21.9622Z" fill="#9B9B9B"/>
<path d="M17.9413 14.9096H12.0672C11.7928 14.9096 11.5684 14.6851 11.5684 14.4107C11.5684 14.1364 11.7928 13.9119 12.0672 13.9119H17.9413C18.2156 13.9119 18.4401 14.1364 18.4401 14.4107C18.4401 14.6851 18.2156 14.9096 17.9413 14.9096Z" fill="#9B9B9B"/>
<path d="M17.9413 17.2604H12.0672C11.7928 17.2604 11.5684 17.036 11.5684 16.7616C11.5684 16.4872 11.7928 16.2627 12.0672 16.2627H17.9413C18.2156 16.2627 18.4401 16.4872 18.4401 16.7616C18.4401 17.036 18.2156 17.2604 17.9413 17.2604Z" fill="#9B9B9B"/>
</g>
<defs>
<clipPath id="clip0_2105_41968">
<rect width="30" height="30" fill="white"/>
</clipPath>
</defs>
</svg>
