<svg width="57" height="57" viewBox="0 0 57 57" fill="none" xmlns="http://www.w3.org/2000/svg">
<g clip-path="url(#clip0_2951_17803)">
<path d="M57 28.5C57 12.7599 44.2401 0 28.5 0C12.7599 0 0 12.7599 0 28.5C0 44.2401 12.7599 57 28.5 57C44.2401 57 57 44.2401 57 28.5Z" fill="white"/>
<path d="M41.2525 14.1148H15.7429C15.0797 14.1148 14.5371 13.5782 14.5371 12.909C14.5371 12.2397 15.0737 11.7031 15.7429 11.7031H41.2525C41.9157 11.7031 42.4583 12.2397 42.4583 12.909C42.4583 13.5782 41.9217 14.1148 41.2525 14.1148Z" fill="#15BEB2"/>
<path d="M41.2527 45.2918C40.5895 45.2918 40.0469 44.7552 40.0469 44.0859V12.909C40.0469 12.2458 40.5835 11.7031 41.2527 11.7031C41.922 11.7031 42.4586 12.2397 42.4586 12.909V44.0859C42.4586 44.7491 41.922 45.2918 41.2527 45.2918Z" fill="#15BEB2"/>
<path d="M15.7429 36.7906C15.0797 36.7906 14.5371 36.254 14.5371 35.5848V12.909C14.5371 12.2458 15.0737 11.7031 15.7429 11.7031C16.4122 11.7031 16.9488 12.2397 16.9488 12.909V35.5848C16.9488 36.248 16.4122 36.7906 15.7429 36.7906Z" fill="#15BEB2"/>
<path d="M41.2531 45.2916H24.2508C23.5875 45.2916 23.0449 44.755 23.0449 44.0857C23.0449 43.4165 23.5815 42.8799 24.2508 42.8799H41.2531C41.9163 42.8799 42.4589 43.4165 42.4589 44.0857C42.4589 44.755 41.9223 45.2916 41.2531 45.2916Z" fill="#15BEB2"/>
<path d="M24.2509 45.2918C23.9434 45.2918 23.6359 45.1712 23.4007 44.9361L14.8996 36.4349C14.4293 35.9647 14.4293 35.199 14.8996 34.7287C15.3699 34.2584 16.1356 34.2584 16.6058 34.7287L25.107 43.2298C25.5773 43.7001 25.5773 44.4658 25.107 44.9361C24.8719 45.1712 24.5644 45.2918 24.2569 45.2918H24.2509Z" fill="#15BEB2"/>
<path d="M24.2508 45.2917C23.5875 45.2917 23.0449 44.7551 23.0449 44.0859V35.5847C23.0449 34.9215 23.5815 34.3789 24.2508 34.3789C24.92 34.3789 25.4566 34.9155 25.4566 35.5847V44.0859C25.4566 44.7491 24.92 45.2917 24.2508 45.2917Z" fill="#15BEB2"/>
<path d="M24.25 36.7906H15.7488C15.0856 36.7906 14.543 36.254 14.543 35.5847C14.543 34.9155 15.0796 34.3789 15.7488 34.3789H24.25C24.9132 34.3789 25.4558 34.9155 25.4558 35.5847C25.4558 36.254 24.9192 36.7906 24.25 36.7906Z" fill="#15BEB2"/>
<path d="M28.64 19.1436C28.9475 19.1436 29.2549 19.2641 29.4901 19.4993C29.9604 19.9696 29.9604 20.7353 29.4901 21.2055L23.8226 26.873C23.3524 27.3433 22.5867 27.3433 22.1164 26.873C21.6461 26.4027 21.6461 25.637 22.1164 25.1667L27.7838 19.4993C28.019 19.2641 28.3265 19.1436 28.6339 19.1436H28.64Z" fill="#15BEB2"/>
<path d="M28.6385 19.1436C28.946 19.1436 29.2535 19.2641 29.4887 19.4993L35.1561 25.1667C35.6264 25.637 35.6264 26.4027 35.1561 26.873C34.6858 27.3433 33.9201 27.3433 33.4498 26.873L27.7824 21.2055C27.3121 20.7353 27.3121 19.9696 27.7824 19.4993C28.0175 19.2641 28.325 19.1436 28.6325 19.1436H28.6385Z" fill="#15BEB2"/>
<path d="M28.6394 19.1436C29.3026 19.1436 29.8453 19.6802 29.8453 20.3494V31.6843C29.8453 32.3475 29.3087 32.8901 28.6394 32.8901C27.9702 32.8901 27.4336 32.3535 27.4336 31.6843V20.3494C27.4336 19.6862 27.9702 19.1436 28.6394 19.1436Z" fill="#15BEB2"/>
</g>
<defs>
<clipPath id="clip0_2951_17803">
<rect width="57" height="57" fill="white"/>
</clipPath>
</defs>
</svg>
