<svg width="34" height="34" viewBox="0 0 34 34" fill="none" xmlns="http://www.w3.org/2000/svg">
<g clip-path="url(#clip0_2941_28509)">
<path d="M17 34C26.3888 34 34 26.3888 34 17C34 7.61116 26.3888 0 17 0C7.61116 0 0 7.61116 0 17C0 26.3888 7.61116 34 17 34Z" fill="#FE8F15"/>
<path d="M28.1472 8.08376C28.1538 7.91063 28.0906 7.74416 27.9707 7.62097C27.7277 7.36128 27.3148 7.34796 27.0551 7.59101L24.6014 9.88831L24.1519 9.40887C23.7091 8.93942 23.1131 8.66974 22.4739 8.64976C21.8346 8.62313 21.2187 8.85286 20.7426 9.29567L11.1272 18.3084L10.9674 18.1353L10.8842 18.0487C10.2116 17.3262 9.07296 17.2896 8.35048 17.9688C7.99756 18.2951 7.79447 18.7412 7.78448 19.2173C7.76783 19.6968 7.93763 20.1529 8.26391 20.5025L10.5912 22.9896L8.24727 25.1836L6.9721 23.8219C6.85557 23.6954 6.69243 23.6221 6.5193 23.6155C6.34617 23.6088 6.1797 23.6721 6.05318 23.7919C5.92666 23.9118 5.85342 24.0716 5.85009 24.2447C5.84343 24.4179 5.90669 24.581 6.02655 24.7075L7.74452 26.542L9.4625 28.3766C9.5524 28.4731 9.6656 28.5364 9.79212 28.5663C9.83873 28.5763 9.88867 28.583 9.93528 28.583C10.0984 28.583 10.2582 28.523 10.3781 28.4065C10.5046 28.2867 10.5779 28.1268 10.5812 27.9537C10.5878 27.7806 10.5246 27.6141 10.4047 27.4909L9.12956 26.1292L11.4735 23.9351L13.9006 26.5254C14.1503 26.7884 14.4666 26.9682 14.8129 27.0448C14.9227 27.0681 15.0393 27.0847 15.1525 27.0914C15.6286 27.1014 16.0847 26.9316 16.4376 26.6053C16.7839 26.279 16.987 25.8329 17.0036 25.3568C17.0169 24.874 16.8471 24.4179 16.5175 24.0716L16.4343 23.9851L16.2012 23.732L25.8199 14.7193C26.2894 14.2798 26.5591 13.6838 26.5824 13.0379C26.6023 12.3887 26.3726 11.7761 25.9331 11.3133L25.4837 10.8339L27.9374 8.53656C28.064 8.4167 28.1372 8.25689 28.1405 8.08376H28.1472ZM12.126 19.1541L13.5111 17.8556L14.6664 19.0908C14.7563 19.1874 14.8695 19.2506 14.996 19.2806C15.0426 19.2906 15.0925 19.2972 15.1392 19.2972C15.3023 19.2972 15.4621 19.2373 15.582 19.1208C15.7085 19.0009 15.7817 18.8411 15.7851 18.668C15.7884 18.4948 15.7285 18.3284 15.6086 18.2052L14.4533 16.97L16.8105 14.7592L17.9658 15.9945C18.0557 16.091 18.1689 16.1543 18.2954 16.1842C18.3421 16.1942 18.392 16.2009 18.4386 16.2009C18.6018 16.2009 18.7616 16.141 18.8814 16.0244C19.0079 15.9046 19.0812 15.7447 19.0845 15.5716C19.0878 15.3985 19.0279 15.232 18.9081 15.1088L17.7494 13.8736L20.1066 11.6629L21.262 12.8981C21.3518 12.9947 21.465 13.0579 21.5916 13.0879C21.6382 13.0979 21.6881 13.1045 21.7347 13.1045C21.8979 13.1045 22.0577 13.0446 22.1775 12.9281C22.3041 12.8082 22.3773 12.6484 22.3806 12.4753C22.3873 12.3021 22.324 12.139 22.2042 12.0125L21.0455 10.7773L21.6215 10.2379C21.8379 10.0348 22.1209 9.92826 22.4106 9.93825C22.7102 9.95157 22.9899 10.0781 23.1897 10.2912L24.9743 12.1956C25.1807 12.4153 25.2872 12.6983 25.2739 12.998C25.2639 13.2943 25.1407 13.5706 24.9243 13.7737L16.8605 21.3315L15.4155 22.6833L12.1094 19.1541H12.126ZM15.6719 25.7796C15.5453 25.8995 15.3722 25.9661 15.1991 25.9594C15.1591 25.9594 15.1125 25.9527 15.0726 25.9428C14.9394 25.9128 14.8229 25.8462 14.733 25.7463L9.09294 19.7301C8.96975 19.5969 8.90649 19.4337 8.91315 19.2473C8.91648 19.0642 8.9864 18.911 9.1229 18.7845C9.24609 18.668 9.4059 18.608 9.57237 18.608C9.62232 18.608 9.67226 18.6147 9.7222 18.6247C9.85205 18.6547 9.9719 18.7212 10.0651 18.8178L10.6311 19.4204C10.6311 19.4204 10.6378 19.4404 10.6444 19.4471L10.6644 19.4837L14.9427 24.0583C14.9727 24.0849 15.006 24.1049 15.0393 24.1282L15.3855 24.4978L15.7018 24.8341C15.9515 25.1037 15.9349 25.5266 15.6685 25.7796H15.6719Z" fill="white"/>
</g>
<defs>
<clipPath id="clip0_2941_28509">
<rect width="34" height="34" fill="white"/>
</clipPath>
</defs>
</svg>
