<svg preserveAspectRatio="none" width="100%" height="100%" overflow="visible" style="display: block;" viewBox="0 0 60 60" fill="none" xmlns="http://www.w3.org/2000/svg">
<g id="Group">
<path id="Vector" d="M30 0C13.4315 0 0 13.4315 0 30C0 46.5685 13.4315 60 30 60C46.5685 60 60 46.5685 60 30C60 13.4315 46.5685 0 30 0Z" fill="var(--fill-0, white)"/>
<g id="Group_2">
<path id="Vector_2" d="M24.0102 43.6765C24.0102 43.931 24.095 44.1855 24.2817 44.3891C24.6719 44.8133 25.3507 44.8473 25.7749 44.457L40.69 30.7805C41.1143 30.3903 41.1482 29.7115 40.7579 29.2873C40.3676 28.8631 39.6889 28.8292 39.2647 29.2195L24.3495 42.8959C24.129 43.0995 24.0102 43.388 24.0102 43.6765Z" fill="var(--fill-0, #FF0063)"/>
<path id="Vector_3" d="M24.0102 16.3405C24.0102 16.629 24.129 16.9174 24.3495 17.121L39.2647 30.7975C39.6889 31.1878 40.3676 31.1708 40.7579 30.7296C41.1482 30.3054 41.1312 29.6267 40.69 29.2364L25.7749 15.56C25.3507 15.1697 24.6719 15.1867 24.2817 15.6278C24.095 15.8314 24.0102 16.086 24.0102 16.3405Z" fill="var(--fill-0, #FF0063)"/>
</g>
</g>
</svg>
