<?xml version="1.0"?>


<svg version="1.1" id="svg1" viewBox="37.24 361.24 1248.06 612.28" xmlns:inkscape="http://www.inkscape.org/namespaces/inkscape" xmlns:sodipodi="http://sodipodi.sourceforge.net/DTD/sodipodi-0.dtd" xmlns="http://www.w3.org/2000/svg" xmlns:svg="http://www.w3.org/2000/svg">
  <defs id="defs1">
    <clipPath clipPathUnits="userSpaceOnUse" id="clipPath2">
      <path d="M 0,1000 H 1000 V 0 H 0 Z" transform="translate(-339.72631,-714.08452)" id="path2"></path>
    </clipPath>
    <clipPath clipPathUnits="userSpaceOnUse" id="clipPath4">
      <path d="M 0,1000 H 1000 V 0 H 0 Z" transform="translate(-553.02161,-485.06581)" id="path4"></path>
    </clipPath>
    <clipPath clipPathUnits="userSpaceOnUse" id="clipPath6">
      <path d="M 0,1000 H 1000 V 0 H 0 Z" transform="translate(-903.6808,-474.79861)" id="path6"></path>
    </clipPath>
    <clipPath clipPathUnits="userSpaceOnUse" id="clipPath8">
      <path d="M 0,1000 H 1000 V 0 H 0 Z" transform="translate(-161.93181,-462.78161)" id="path8"></path>
    </clipPath>
    <clipPath clipPathUnits="userSpaceOnUse" id="clipPath10">
      <path d="M 0,1000 H 1000 V 0 H 0 Z" transform="translate(-320.61331,-304.38911)" id="path10"></path>
    </clipPath>
    <clipPath clipPathUnits="userSpaceOnUse" id="clipPath12">
      <path d="M 0,1000 H 1000 V 0 H 0 Z" transform="translate(-380.70851,-317.66181)" id="path12"></path>
    </clipPath>
    <clipPath clipPathUnits="userSpaceOnUse" id="clipPath14">
      <path d="M 0,1000 H 1000 V 0 H 0 Z" transform="translate(-514.55431,-337.73711)" id="path14"></path>
    </clipPath>
    <clipPath clipPathUnits="userSpaceOnUse" id="clipPath16">
      <path d="M 0,1000 H 1000 V 0 H 0 Z" transform="translate(-514.55431,-371.16061)" id="path16"></path>
    </clipPath>
    <clipPath clipPathUnits="userSpaceOnUse" id="clipPath18">
      <path d="M 0,1000 H 1000 V 0 H 0 Z" transform="translate(-543.46211,-317.37921)" id="path18"></path>
    </clipPath>
    <clipPath clipPathUnits="userSpaceOnUse" id="clipPath20">
      <path d="M 0,1000 H 1000 V 0 H 0 Z" transform="translate(-667.15972,-304.38911)" id="path20"></path>
    </clipPath>
  </defs>
  
  <g id="layer-MC0">
    <path id="path1" d="m 0,0 c -65.471,-19.483 -86.014,-145.119 -61.95,-229.142 24.059,-84.019 64.11,-71.632 84.309,-57.58 20.198,14.052 34.35,54.864 25.009,70.567 -9.342,15.702 -35.721,6.311 -46.033,25.409 -10.317,19.098 19.308,31.26 42.437,37.881 23.134,6.626 51.649,0.09 55.784,-14.347 4.136,-14.437 -34.44,-29.16 -30.305,-43.597 4.131,-14.438 32.091,-58.49 73.432,-44.973 41.342,13.517 44.838,57.705 29.695,99.316 C 157.231,-114.859 81.838,24.354 0,0" style="fill:#1cbcad;fill-opacity:1;fill-rule:nonzero;stroke:none" transform="matrix(1.3333333,0,0,-1.3333333,452.9684,381.22067)" clip-path="url(#clipPath2)"></path>
    <path id="path3" d="m 0,0 c 10.257,38.546 28.665,86.059 41.702,135.077 1.34,5.031 1.565,5.866 -14.378,9.662 -39.631,9.431 -44.907,36.756 -36.32,69.016 9.921,37.291 45.857,37.646 120.109,19.978 66.051,-15.717 111.873,-34.936 102.177,-71.391 -8.812,-33.096 -29.96,-53.839 -73.687,-43.433 -15.033,3.576 -16.063,5.161 -17.958,-1.965 C 108.378,67.086 100.446,17.083 90.19,-21.463 84.394,-43.252 70.907,-52.068 37.201,-44.047 2.58,-35.811 -5.796,-21.789 0,0" style="fill:#1cbcad;fill-opacity:1;fill-rule:nonzero;stroke:none" transform="matrix(1.3333333,0,0,-1.3333333,737.36213,686.57893)" clip-path="url(#clipPath4)"></path>
    <path id="path5" d="m 0,0 c -4.106,-9.022 -13.607,-14.908 -23.149,-14.347 -10.247,0.605 -16.697,9.486 -14.072,19.373 2.56,9.646 11.567,17.197 21.518,18.048 C -2.305,24.219 5.681,12.477 0,0 m -7.496,-36.036 c -4.526,-6.286 -9.787,-9.041 -18.038,-5.341 -8.552,3.836 -10.997,12.017 -5.396,18.028 5.836,6.256 13.417,7.431 20.628,1.636 4.881,-3.926 6.041,-9.837 2.806,-14.323 m -31.39,2.916 c -1.611,-7.452 -4.226,-14.688 -6.391,-22.059 -1.726,-2.465 -3.116,-5.121 -5.121,-7.176 -5.096,-5.226 -11.242,-7.851 -18.523,-5.301 -8.632,3.025 -14.323,8.881 -15.983,18.153 -0.225,1.235 -0.285,2.495 -0.415,3.745 -0.395,3.731 -2.365,6.056 -5.941,7.322 -3.936,1.395 -7.876,2.895 -11.612,4.75 -7.681,3.811 -10.917,10.592 -10.937,18.774 -0.02,7.666 4.516,12.732 11.227,15.672 9.107,3.996 18.198,8.041 28.495,8.256 23.864,0.495 40.236,-18.802 35.201,-42.136 m -45.388,75.857 c 7.361,4.271 15.443,0.835 17.473,-7.431 0.995,-4.046 0.37,-7.921 -1.235,-11.812 -1.84,-3.631 -4.341,-6.776 -8.232,-8.597 -7.031,-3.295 -14.302,0.085 -16.337,7.587 -2.025,7.451 1.65,16.377 8.331,20.253 M -63.3,28.335 c 0.295,1.55 0.93,3.035 1.325,4.295 3.501,6.596 8.241,11.292 15.567,12.572 8.922,1.556 15.953,-4.355 16.203,-13.417 0.25,-8.896 -6.261,-18.138 -14.757,-20.848 -5.256,-1.68 -10.247,-1.26 -14.438,2.63 -4.355,4.046 -4.946,9.247 -3.9,14.768 M 36.921,98.871 c -49.638,43.367 -165.192,-7.341 -223.231,-72.347 -58.035,-65.01 -27.28,-91.285 -5.236,-100.336 22.038,-9.052 58.829,4.621 71.761,17.403 13.558,13.392 24.959,-2.551 15.618,-15.123 -8.931,-12.022 -32.59,-57.874 -0.23,-84.603 32.36,-26.735 71.102,-5.831 98.196,29.019 C 20.893,-92.27 98.966,44.657 36.921,98.871" style="fill:#1cbcad;fill-opacity:1;fill-rule:nonzero;stroke:none" transform="matrix(1.3333333,0,0,-1.3333333,1204.9077,700.26853)" clip-path="url(#clipPath6)"></path>
    <path id="path7" d="M 0,0 C -5.576,-4.556 -11.132,0.35 -30.87,24.509 -41.972,38.101 -44.737,47.173 -39.471,51.474 -28.325,60.585 -12.857,64.406 1.33,47.043 21.073,22.879 12.697,10.372 0,0 M 40.242,-45.897 C 93.5,-2.105 98.851,53.444 60.045,100.631 12.922,157.936 -44.637,139.983 -99.581,94.805 c -46.853,-38.531 -54.354,-58.264 31.57,-162.756 58.209,-70.787 95.851,-107.633 127.201,-81.853 19.548,16.077 22.598,37.796 8.461,54.984 -18.573,22.583 -36.171,41.716 -27.409,48.923" style="fill:#1cbcad;fill-opacity:1;fill-rule:nonzero;stroke:none" transform="matrix(1.3333333,0,0,-1.3333333,215.90907,716.2912)" clip-path="url(#clipPath8)"></path>
    <path id="path9" d="m 0,0 c 0,-3.245 1.595,-3.245 6.856,-3.245 5.101,0 6.851,0 6.851,3.245 0,6.916 -4.461,22.029 -6.851,22.029 C 4.306,22.029 0,6.916 0,0 m 6.856,61.135 c 24.864,0 39.692,-62.545 39.692,-81.323 0,-8.757 -3.671,-13.273 -12.597,-13.273 -8.127,0 -12.593,3.951 -14.823,11.152 -1.435,5.081 -2.55,5.226 -12.272,5.226 -9.406,0 -11.002,0 -12.597,-5.086 -2.23,-8.046 -6.851,-11.292 -15.302,-11.292 -7.492,0 -11.952,4.516 -11.952,13.273 0,13.692 16.257,81.323 39.851,81.323" style="fill:#1e5354;fill-opacity:1;fill-rule:nonzero;stroke:none" transform="matrix(1.3333333,0,0,-1.3333333,427.4844,927.4812)" clip-path="url(#clipPath10)"></path>
    <path id="path11" d="m 0,0 c 0,23.859 -0.16,47.863 15.462,47.863 10.522,0 22.474,-14.683 33.796,-42.497 0.635,-1.27 1.59,-1.27 2.07,0 11.157,27.669 20.404,42.357 32.361,42.357 15.777,0 16.732,-22.169 16.732,-46.028 0,-37.416 -0.795,-47.582 -17.533,-47.582 -7.171,0 -12.271,4.375 -12.271,12.282 0,6.356 2.55,17.227 2.55,23.298 0,3.951 -0.48,6.917 -2.39,6.917 -4.626,0 -10.522,-41.087 -20.564,-41.087 -9.566,0 -15.782,40.946 -19.928,40.946 -1.75,0 -2.39,-2.825 -2.39,-6.776 0,-6.071 1.595,-16.942 1.595,-23.298 0,-7.907 -2.551,-12.282 -12.752,-12.282 C 3.346,-45.887 0,-36.286 0,0" style="fill:#1e5354;fill-opacity:1;fill-rule:nonzero;stroke:none" transform="matrix(1.3333333,0,0,-1.3333333,507.61133,909.78427)" clip-path="url(#clipPath12)"></path>
    <path id="path13" d="m 0,0 c 12.912,0 15.783,-6.296 15.783,-32.98 0,-26.785 -1.596,-32.981 -14.508,-32.981 -12.912,0 -17.218,6.196 -17.218,32.981 C -15.943,-6.296 -12.912,0 0,0" style="fill:#1e5354;fill-opacity:1;fill-rule:nonzero;stroke:none" transform="matrix(1.3333333,0,0,-1.3333333,686.0724,883.0172)" clip-path="url(#clipPath14)"></path>
    <path id="path15" d="m 0,0 c 10.937,0 15.783,-7.866 15.783,-14.362 0,-6.176 -4.846,-14.368 -14.508,-14.368 -12.912,0 -17.218,7.537 -17.218,14.368 C -15.943,-9.177 -12.912,0 0,0" style="fill:#1e5354;fill-opacity:1;fill-rule:nonzero;stroke:none" transform="matrix(1.3333333,0,0,-1.3333333,686.0724,838.45253)" clip-path="url(#clipPath16)"></path>
    <path id="path17" d="m 0,0 c 0,32.19 15.462,48.568 44.632,48.568 18.493,0 28.055,-8.046 28.055,-17.648 0,-7.201 -3.506,-14.262 -10.522,-14.262 -5.736,0 -9.881,5.366 -16.578,5.366 -10.201,0 -14.342,-7.057 -14.342,-21.599 0,-13.837 6.376,-20.193 14.342,-20.193 6.377,0 7.017,4.096 7.017,7.061 0,4.516 -2.551,8.186 -2.551,11.857 0,3.531 2.551,4.801 10.997,4.801 15.782,0 17.378,-5.081 17.378,-23.294 0,-21.884 -0.96,-26.259 -8.452,-26.259 -4.14,0 -7.171,2.82 -9.561,2.82 -2.711,0 -6.536,-3.671 -16.738,-3.671 C 24.229,-46.453 0,-36.286 0,0" style="fill:#1e5354;fill-opacity:1;fill-rule:nonzero;stroke:none" transform="matrix(1.3333333,0,0,-1.3333333,724.61613,910.16107)" clip-path="url(#clipPath18)"></path>
    <path id="path19" d="m 0,0 c 0,-3.245 1.595,-3.245 6.856,-3.245 5.101,0 6.851,0 6.851,3.245 0,6.916 -4.46,22.029 -6.851,22.029 C 4.306,22.029 0,6.916 0,0 m 6.856,61.135 c 24.864,0 39.692,-62.545 39.692,-81.323 0,-8.757 -3.671,-13.273 -12.592,-13.273 -8.132,0 -12.598,3.951 -14.828,11.152 -1.435,5.081 -2.55,5.226 -12.272,5.226 -9.406,0 -11.002,0 -12.592,-5.086 -2.235,-8.046 -6.856,-11.292 -15.302,-11.292 -7.497,0 -11.957,4.516 -11.957,13.273 0,13.692 16.257,81.323 39.851,81.323" style="fill:#1e5354;fill-opacity:1;fill-rule:nonzero;stroke:none" transform="matrix(1.3333333,0,0,-1.3333333,889.54627,927.4812)" clip-path="url(#clipPath20)"></path>
  </g>
</svg>